# xmcd CD database file
#
# Track frame offsets:
#	150
#	20989
#	37933
#	61935
#	80318
#	101463
#	118822
#	137463
#	154589
#	173624
#	195783
#	218610
#	239306
#	257936
#
# Disc length: 3638 seconds
#
# Revision: 2
# Processed by: cddbd v1.4PL0 Copyright (c) Steve Scherf et al.
# Submitted via: CDex 1.40Release
#
DISCID=ac0e340e
DTITLE=Faith Hill - Cry
DYEAR=2002
DGENRE=
TTITLE0=Free
TTITLE1=Cry
TTITLE2=One
TTITLE3=When The Lights Go Down
TTITLE4=Beautiful
TTITLE5=Unsaveable
TTITLE6=Baby You Belong
TTITLE7=If You're Gonna Fly Away
TTITLE8=Stronger
TTITLE9=If This Is The End
TTITLE10=This Is Me
TTITLE11=Back To You
TTITLE12=I Think I Will
TTITLE13=You're Still Here
EXTD=YEAR: 2002
EXTT0=
EXTT1=
EXTT2=
EXTT3=
EXTT4=
EXTT5=
EXTT6=
EXTT7=
EXTT8=
EXTT9=
EXTT10=
EXTT11=
EXTT12=
EXTT13=
PLAYORDER=
